<?xml version="1.0" encoding="UTF-8"?>
<svg version="1.1" xmlns="http://www.w3.org/2000/svg" width="225" height="225">
<path d="M0 0 C74.25 0 148.5 0 225 0 C225 74.25 225 148.5 225 225 C150.75 225 76.5 225 0 225 C0 150.75 0 76.5 0 0 Z " fill="#FEFDFD" transform="translate(0,0)"/>
<path d="M0 0 C1.9446987 8.60632616 2.96140003 17.246086 4 26 C5.32 17.42 6.64 8.84 8 0 C20.04346327 1.50543291 30.82552895 5.65132398 38.828125 15.17578125 C41.80597809 17.67696361 43.9038559 17.53262536 47.75 17.625 C53.15470146 17.85630768 57.83002389 18.44900717 63 20 C63 20.66 63 21.32 63 22 C64.32 22 65.64 22 67 22 C67 22.66 67 23.32 67 24 C67.5775 24.12375 68.155 24.2475 68.75 24.375 C71.02335767 25.00648824 72.9253529 25.88858191 75 27 C75 27.66 75 28.32 75 29 C75.804375 29.268125 76.60875 29.53625 77.4375 29.8125 C78.283125 30.204375 79.12875 30.59625 80 31 C80.33 31.99 80.66 32.98 81 34 C81.66 34 82.32 34 83 34 C83 35.98 83 37.96 83 40 C82.34 40 81.68 40 81 40 C81 40.66 81 41.32 81 42 C78.03 42.99 78.03 42.99 75 44 C75 44.66 75 45.32 75 46 C73.35 46.66 71.7 47.32 70 48 C70 48.66 70 49.32 70 50 C69.01 50 68.02 50 67 50 C67 50.99 67 51.98 67 53 C64.03 53.99 64.03 53.99 61 55 C61.33 55.66 61.66 56.32 62 57 C62.72445312 56.66226563 63.44890625 56.32453125 64.1953125 55.9765625 C69.07985044 53.72316233 73.86886456 51.632634 79 50 C80.19625 49.443125 81.3925 48.88625 82.625 48.3125 C86.88721805 46.65497076 86.88721805 46.65497076 90 48 C93.75600321 53.67604962 93.31008108 61.57239651 93.375 68.125 C93.38885742 68.97167236 93.40271484 69.81834473 93.41699219 70.69067383 C93.3701235 77.01732988 92.68448593 83.31551407 88 88 C88.4235911 91.86610923 89.79691732 95.40183611 91.0625 99.0625 C94.75468959 111.02842832 92.89235113 121.32294662 89 133 C85.28111761 132.49287967 82.26545761 131.88391785 79 130 C79 129.34 79 128.68 79 128 C78.030625 127.9175 77.06125 127.835 76.0625 127.75 C71.32880899 127.1000875 67.26015593 125.07694677 63 123 C62.67 123.33 62.34 123.66 62 124 C64.18594079 125.73116808 66.37369337 127.45996163 68.5625 129.1875 C69.17158203 129.67025391 69.78066406 130.15300781 70.40820312 130.65039062 C74.52267291 133.89407315 78.71571949 136.98391063 83 140 C81.65805572 146.1609976 76.74286911 149.9385869 71.6875 153.4375 C69 155 69 155 67 155 C67 155.66 67 156.32 67 157 C61.41591274 159.22499415 56.32039553 161.05281947 50.3125 161.625 C45.54511897 162.37454574 43.81874861 163.85162082 40.9375 167.6875 C40.30457031 168.58082031 39.67164063 169.47414062 39.01953125 170.39453125 C33.72439153 177.22597843 25.28247263 181.78339581 17 184 C14.03 184.33 11.06 184.66 8 185 C7.01 175.76 6.02 166.52 5 157 C4.67 157 4.34 157 4 157 C3.91435791 157.77714355 3.82871582 158.55428711 3.74047852 159.35498047 C3.35176055 162.86210367 2.95720557 166.36854584 2.5625 169.875 C2.36043945 171.70998047 2.36043945 171.70998047 2.15429688 173.58203125 C1.95610352 175.33193359 1.95610352 175.33193359 1.75390625 177.1171875 C1.63345947 178.19597168 1.5130127 179.27475586 1.38891602 180.38623047 C1 183 1 183 0 185 C-14.45678791 183.46204384 -25.4145918 176.84555885 -35 166 C-35.66 165.01 -36.32 164.02 -37 163 C-39.41215852 162.45190428 -39.41215852 162.45190428 -42.25 162.25 C-53.99577778 160.5659668 -64.63143233 154.25566919 -72.4375 145.375 C-73.20900391 144.52035156 -73.20900391 144.52035156 -73.99609375 143.6484375 C-74.32738281 143.10445312 -74.65867187 142.56046875 -75 142 C-73.64448708 137.93346123 -70.89364239 136.51629828 -67.5 134.1875 C-66.55519775 133.52645264 -66.55519775 133.52645264 -65.59130859 132.85205078 C-60.77651864 129.49584087 -55.91921463 126.20139365 -51 123 C-55.4473645 124.45550111 -59.87511451 125.94827256 -64.27734375 127.53515625 C-65.03281494 127.80634277 -65.78828613 128.0775293 -66.56665039 128.35693359 C-68.09460329 128.90670575 -69.62116414 129.46036363 -71.14624023 130.01806641 C-74.21924194 131.12130217 -76.7087442 132 -80 132 C-84.21398159 117.85306179 -83.30768687 106.58594144 -79.28515625 92.49609375 C-78.91114138 89.22218277 -79.73670612 87.07731863 -80.875 84 C-85.28990121 71.89761347 -84.66015403 61.28765997 -81 49 C-76.80537029 47.79915835 -74.48897741 48.23633882 -70.48046875 49.87109375 C-69.45888672 50.28037109 -68.43730469 50.68964844 -67.38476562 51.11132812 C-66.32966797 51.54896484 -65.27457031 51.98660156 -64.1875 52.4375 C-63.11306641 52.87126953 -62.03863281 53.30503906 -60.93164062 53.75195312 C-58.28287177 54.82323297 -55.63952875 55.90619552 -53 57 C-55.93447588 54.00713821 -58.89802041 51.50141399 -62.3125 49.0625 C-63.27414063 48.37285156 -64.23578125 47.68320313 -65.2265625 46.97265625 C-66.14179687 46.32167969 -67.05703125 45.67070313 -68 45 C-68.75023437 44.46246094 -69.50046875 43.92492187 -70.2734375 43.37109375 C-71.84664694 42.24416209 -73.42290606 41.12148902 -75 40 C-70.01778186 29.06814272 -59.36847758 24.62487153 -49 20 C-45.97443302 18.99147767 -43.84747994 18.9361891 -40.6875 18.875 C-36.64717124 18.58454473 -36.64717124 18.58454473 -33.26171875 16.58984375 C-32.3186639 15.38113965 -31.40130726 14.15203697 -30.5078125 12.90625 C-23.78597728 4.40817853 -10.56206004 -0.30177314 0 0 Z " fill="#FD5740" transform="translate(109,22)"/>
<path d="M0 0 C1.9446987 8.60632616 2.96140003 17.246086 4 26 C5.32 17.42 6.64 8.84 8 0 C23.07636177 1.88454522 33.49005517 8.29317086 43.27734375 19.734375 C45.72320008 22.9511475 47.53174669 26.24214376 49 30 C49.35707031 30.84691406 49.71414062 31.69382812 50.08203125 32.56640625 C51.35397876 37.32403117 51.32906545 41.84662669 51.3125 46.75 C51.32861328 47.6884375 51.34472656 48.626875 51.36132812 49.59375 C51.36706753 57.90440757 49.78795734 65.5668797 45.5625 72.8125 C45.17191406 73.49957031 44.78132812 74.18664062 44.37890625 74.89453125 C41.20548266 79.74007039 37.78411604 83.17512019 33.125 86.625 C32.11695313 87.38039063 31.10890625 88.13578125 30.0703125 88.9140625 C21.83223261 94.51092594 14.07400071 96.38380409 4.25 96.3125 C3.08126343 96.30730347 3.08126343 96.30730347 1.88891602 96.30200195 C-4.52347003 96.1824098 -11.09148399 95.6836811 -17 93 C-17.33 92.01 -17.66 91.02 -18 90 C-18.73992187 90.05542969 -19.47984375 90.11085938 -20.2421875 90.16796875 C-24.84877164 89.88739776 -27.69916925 87.0413768 -31 84 C-32.75 81.4375 -32.75 81.4375 -34 79 C-34.721875 78.113125 -35.44375 77.22625 -36.1875 76.3125 C-38 74 -38 74 -38 72 C-38.66 72 -39.32 72 -40 72 C-40.33 70.02 -40.66 68.04 -41 66 C-41.96421875 66.27714844 -42.9284375 66.55429688 -43.921875 66.83984375 C-45.81679687 67.38318359 -45.81679687 67.38318359 -47.75 67.9375 C-49.62945312 68.47697266 -49.62945312 68.47697266 -51.546875 69.02734375 C-54.02561719 69.72554149 -56.49660162 70.39943726 -59 71 C-59 71.66 -59 72.32 -59 73 C-60.6796875 74.2890625 -60.6796875 74.2890625 -62.875 75.625 C-63.95394531 76.29402344 -63.95394531 76.29402344 -65.0546875 76.9765625 C-67 78 -67 78 -69 78 C-69 78.66 -69 79.32 -69 80 C-69.66 80 -70.32 80 -71 80 C-71.2475 80.86625 -71.495 81.7325 -71.75 82.625 C-73.06778613 86.18302254 -74.80186822 88.9226155 -77 92 C-79.46536502 89.53463498 -79.99000042 87.49471352 -81.0625 84.1875 C-81.40410156 83.14980469 -81.74570313 82.11210938 -82.09765625 81.04296875 C-85.37257971 69.99896279 -84.25643746 59.93232575 -81 49 C-76.80537029 47.79915835 -74.48897741 48.23633882 -70.48046875 49.87109375 C-69.45888672 50.28037109 -68.43730469 50.68964844 -67.38476562 51.11132812 C-66.32966797 51.54896484 -65.27457031 51.98660156 -64.1875 52.4375 C-63.11306641 52.87126953 -62.03863281 53.30503906 -60.93164062 53.75195312 C-58.28287177 54.82323297 -55.63952875 55.90619552 -53 57 C-55.93447588 54.00713821 -58.89802041 51.50141399 -62.3125 49.0625 C-63.27414063 48.37285156 -64.23578125 47.68320313 -65.2265625 46.97265625 C-66.14179687 46.32167969 -67.05703125 45.67070313 -68 45 C-68.75023437 44.46246094 -69.50046875 43.92492187 -70.2734375 43.37109375 C-71.84664694 42.24416209 -73.42290606 41.12148902 -75 40 C-70.01778186 29.06814272 -59.36847758 24.62487153 -49 20 C-45.97443302 18.99147767 -43.84747994 18.9361891 -40.6875 18.875 C-36.64717124 18.58454473 -36.64717124 18.58454473 -33.26171875 16.58984375 C-32.3186639 15.38113965 -31.40130726 14.15203697 -30.5078125 12.90625 C-23.78597728 4.40817853 -10.56206004 -0.30177314 0 0 Z " fill="#67AF8D" transform="translate(109,22)"/>
<path d="M0 0 C0.495 2.97 0.495 2.97 1 6 C1.66 6 2.32 6 3 6 C4.36363208 7.97946592 5.69418644 9.9819245 7 12 C7.5775 12.556875 8.155 13.11375 8.75 13.6875 C10 15 10 15 10 18 C10.5775 18.268125 11.155 18.53625 11.75 18.8125 C14 20 14 20 15.9375 21.5625 C18.29686036 23.20690268 20.20799112 23.4717821 23 24 C23.495 24.99 23.495 24.99 24 26 C26.80478195 26.91485573 26.80478195 26.91485573 30.0625 27.625 C31.16722656 27.88539062 32.27195312 28.14578125 33.41015625 28.4140625 C34.26480469 28.60742188 35.11945313 28.80078125 36 29 C36 29.66 36 30.32 36 31 C37.98 31.495 37.98 31.495 40 32 C39.67 33.051875 39.34 34.10375 39 35.1875 C36.51303172 45.3500754 37.6380143 56.16307887 41 66 C41.52980469 66.69996094 42.05960937 67.39992188 42.60546875 68.12109375 C44 70 44 70 44 74 C44.66 74 45.32 74 46 74 C50 79.41176471 50 79.41176471 50 82 C51.32 82 52.64 82 54 82 C54.0928125 82.928125 54.0928125 82.928125 54.1875 83.875 C54.828919 86.27761141 54.828919 86.27761141 57.5625 87.25 C58.366875 87.4975 59.17125 87.745 60 88 C60 88.66 60 89.32 60 90 C60.59039062 90.13535156 61.18078125 90.27070313 61.7890625 90.41015625 C64 91 64 91 67.375 92.4375 C73.32952231 94.74685846 79.69819955 95.24767832 86 96 C80.58587667 105.29746774 74.72597665 110.38232563 65 115 C64.03707031 115.495 64.03707031 115.495 63.0546875 116 C58.15489945 118.37013003 54.89355654 118.34516038 49 119 C48.01 109.76 47.02 100.52 46 91 C45.67 91 45.34 91 45 91 C44.91435791 91.77714355 44.82871582 92.55428711 44.74047852 93.35498047 C44.35176055 96.86210367 43.95720557 100.36854584 43.5625 103.875 C43.42779297 105.09832031 43.29308594 106.32164062 43.15429688 107.58203125 C42.95610352 109.33193359 42.95610352 109.33193359 42.75390625 111.1171875 C42.63345947 112.19597168 42.5130127 113.27475586 42.38891602 114.38623047 C42 117 42 117 41 119 C26.54321209 117.46204384 15.5854082 110.84555885 6 100 C5.34 99.01 4.68 98.02 4 97 C1.58784148 96.45190428 1.58784148 96.45190428 -1.25 96.25 C-12.99577778 94.5659668 -23.63143233 88.25566919 -31.4375 79.375 C-32.20900391 78.52035156 -32.20900391 78.52035156 -32.99609375 77.6484375 C-33.32738281 77.10445313 -33.65867187 76.56046875 -34 76 C-32.64448708 71.93346123 -29.89364239 70.51629828 -26.5 68.1875 C-25.87013184 67.74680176 -25.24026367 67.30610352 -24.59130859 66.85205078 C-19.77651864 63.49584087 -14.91921463 60.20139365 -10 57 C-14.4473645 58.45550111 -18.87511451 59.94827256 -23.27734375 61.53515625 C-24.41055054 61.94193604 -24.41055054 61.94193604 -25.56665039 62.35693359 C-27.09460329 62.90670575 -28.62116414 63.46036363 -30.14624023 64.01806641 C-33.21924194 65.12130217 -35.7087442 66 -39 66 C-42.76955881 53.34505256 -44.27250417 39.45459027 -38.08886719 27.19335938 C-35.91368775 23.33595902 -33.47661226 19.67049486 -31 16 C-30.67 15.34 -30.34 14.68 -30 14 C-29.34 14 -28.68 14 -28 14 C-28 13.34 -28 12.68 -28 12 C-26.3203125 10.7109375 -26.3203125 10.7109375 -24.125 9.375 C-23.40570313 8.92898437 -22.68640625 8.48296875 -21.9453125 8.0234375 C-20 7 -20 7 -18 7 C-18 6.34 -18 5.68 -18 5 C-16.22934889 4.35366725 -14.45847247 3.7079517 -12.6875 3.0625 C-11.70136719 2.70285156 -10.71523438 2.34320313 -9.69921875 1.97265625 C-6.12591246 0.6850249 -3.87004288 0 0 0 Z " fill="#F31048" transform="translate(68,88)"/>
<path d="M0 0 C0.73025391 -0.00386719 1.46050781 -0.00773437 2.21289062 -0.01171875 C7.161202 -0.00295292 11.91370175 0.42596424 16.8125 1.125 C16.8125 1.785 16.8125 2.445 16.8125 3.125 C17.740625 3.145625 18.66875 3.16625 19.625 3.1875 C25.36655385 3.96721719 30.3378035 7.62130455 34.8125 11.125 C34.8125 11.785 34.8125 12.445 34.8125 13.125 C35.4725 13.125 36.1325 13.125 36.8125 13.125 C39.84259394 16.33873599 41.43134551 18.71265225 41.8125 23.125 C40.8515625 25.84375 40.8515625 25.84375 39.4375 28.625 C34.2477005 38.94661241 34.31778925 51.20638087 37.5625 62.1875 C39.18814046 66.86702219 41.20204155 70.92962035 43.8125 75.125 C43.8125 75.785 43.8125 76.445 43.8125 77.125 C35.94180082 77.54332456 28.2005681 77.12717483 20.8125 74.125 C20.4825 73.135 20.1525 72.145 19.8125 71.125 C19.07257813 71.18042969 18.33265625 71.23585938 17.5703125 71.29296875 C12.96372836 71.01239776 10.11333075 68.1663768 6.8125 65.125 C5.0625 62.5625 5.0625 62.5625 3.8125 60.125 C3.090625 59.238125 2.36875 58.35125 1.625 57.4375 C-0.1875 55.125 -0.1875 55.125 -0.1875 53.125 C-0.8475 53.125 -1.5075 53.125 -2.1875 53.125 C-2.6825 50.155 -2.6825 50.155 -3.1875 47.125 C-4.15171875 47.40214844 -5.1159375 47.67929688 -6.109375 47.96484375 C-8.00429687 48.50818359 -8.00429687 48.50818359 -9.9375 49.0625 C-11.81695312 49.60197266 -11.81695312 49.60197266 -13.734375 50.15234375 C-16.21311719 50.85054149 -18.68410162 51.52443726 -21.1875 52.125 C-21.1875 52.785 -21.1875 53.445 -21.1875 54.125 C-22.8671875 55.4140625 -22.8671875 55.4140625 -25.0625 56.75 C-26.14144531 57.41902344 -26.14144531 57.41902344 -27.2421875 58.1015625 C-29.1875 59.125 -29.1875 59.125 -31.1875 59.125 C-31.1875 59.785 -31.1875 60.445 -31.1875 61.125 C-31.8475 61.125 -32.5075 61.125 -33.1875 61.125 C-33.435 61.99125 -33.6825 62.8575 -33.9375 63.75 C-35.25528613 67.30802254 -36.98936822 70.0476155 -39.1875 73.125 C-41.65286502 70.65963498 -42.17750042 68.61971352 -43.25 65.3125 C-43.59160156 64.27480469 -43.93320312 63.23710938 -44.28515625 62.16796875 C-47.56007971 51.12396279 -46.44393746 41.05732575 -43.1875 30.125 C-38.99287029 28.92415835 -36.67647741 29.36133882 -32.66796875 30.99609375 C-31.64638672 31.40537109 -30.62480469 31.81464844 -29.57226562 32.23632812 C-28.51716797 32.67396484 -27.46207031 33.11160156 -26.375 33.5625 C-25.30056641 33.99626953 -24.22613281 34.43003906 -23.11914062 34.87695312 C-20.47037177 35.94823297 -17.82702875 37.03119552 -15.1875 38.125 C-18.12197588 35.13213821 -21.08552041 32.62641399 -24.5 30.1875 C-25.46164063 29.49785156 -26.42328125 28.80820313 -27.4140625 28.09765625 C-28.32929687 27.44667969 -29.24453125 26.79570313 -30.1875 26.125 C-30.93773437 25.58746094 -31.68796875 25.04992187 -32.4609375 24.49609375 C-34.03414694 23.36916209 -35.61040606 22.24648902 -37.1875 21.125 C-32.20528186 10.19314272 -21.55597758 5.74987153 -11.1875 1.125 C-7.42712409 -0.12845864 -3.91512801 -0.02019842 0 0 Z " fill="#3B8393" transform="translate(71.1875,40.875)"/>
<path d="M0 0 C7.35342179 -0.20177072 13.94887561 -0.21211746 21 2 C21 2.66 21 3.32 21 4 C22.32 4 23.64 4 25 4 C25 4.66 25 5.32 25 6 C25.86625 6.185625 25.86625 6.185625 26.75 6.375 C29.02335767 7.00648824 30.9253529 7.88858191 33 9 C33 9.66 33 10.32 33 11 C33.804375 11.268125 34.60875 11.53625 35.4375 11.8125 C36.283125 12.204375 37.12875 12.59625 38 13 C38.495 14.485 38.495 14.485 39 16 C39.66 16 40.32 16 41 16 C41 17.98 41 19.96 41 22 C40.34 22 39.68 22 39 22 C39 22.66 39 23.32 39 24 C37.02 24.66 35.04 25.32 33 26 C33 26.66 33 27.32 33 28 C31.35 28.66 29.7 29.32 28 30 C28 30.66 28 31.32 28 32 C27.01 32 26.02 32 25 32 C25 32.99 25 33.98 25 35 C23.02 35.66 21.04 36.32 19 37 C19.33 37.66 19.66 38.32 20 39 C20.72445312 38.66226563 21.44890625 38.32453125 22.1953125 37.9765625 C27.07985044 35.72316233 31.86886456 33.632634 37 32 C38.19625 31.443125 39.3925 30.88625 40.625 30.3125 C44.88721805 28.65497076 44.88721805 28.65497076 48 30 C51.75600321 35.67604962 51.31008108 43.57239651 51.375 50.125 C51.38885742 50.97167236 51.40271484 51.81834473 51.41699219 52.69067383 C51.36137749 60.19792614 49.68277512 66.00604784 45 72 C44.40660758 73.28707653 43.82447733 74.57937029 43.25 75.875 C41.12506764 80.25613467 38.16456638 83.44908231 34 86 C33.01 86 32.02 86 31 86 C31 86.99 31 87.98 31 89 C16.34466413 96.88341803 16.34466413 96.88341803 9 97 C7.99195313 97.03609375 6.98390625 97.0721875 5.9453125 97.109375 C-7.37901048 97.41709609 -18.09788122 94.56538312 -28.609375 85.83203125 C-30.53887328 83.95384942 -32.36947707 82.14283225 -34 80 C-34 79.34 -34 78.68 -34 78 C-33.04480469 77.79246094 -32.08960937 77.58492188 -31.10546875 77.37109375 C-21.80110619 75.20675513 -13.20171874 72.33540777 -6.328125 65.28515625 C-5 64 -5 64 -3 64 C-2.72027344 63.41863281 -2.44054687 62.83726563 -2.15234375 62.23828125 C-1.06327082 60.12289553 0.13649877 58.17750499 1.4375 56.1875 C8.80508177 44.4949956 10.42993455 29.42733157 7.55322266 15.89892578 C6.44864292 12.37706352 4.82559367 9.19478893 3 6 C2.39056396 4.7525606 1.78529087 3.50306163 1.1875 2.25 C0.5996875 1.13625 0.5996875 1.13625 0 0 Z " fill="#FDE068" transform="translate(151,40)"/>
<path d="M0 0 C0.495 2.97 0.495 2.97 1 6 C1.66 6 2.32 6 3 6 C4.36363208 7.97946592 5.69418644 9.9819245 7 12 C7.5775 12.556875 8.155 13.11375 8.75 13.6875 C10 15 10 15 10 18 C10.5775 18.268125 11.155 18.53625 11.75 18.8125 C14 20 14 20 15.9375 21.5625 C18.29686036 23.20690268 20.20799112 23.4717821 23 24 C23.495 24.99 23.495 24.99 24 26 C26.80478195 26.91485573 26.80478195 26.91485573 30.0625 27.625 C31.16722656 27.88539062 32.27195312 28.14578125 33.41015625 28.4140625 C34.26480469 28.60742188 35.11945313 28.80078125 36 29 C36 29.33 36 29.66 36 30 C35.13117188 29.89300781 34.26234375 29.78601563 33.3671875 29.67578125 C24.77428541 28.65376275 24.77428541 28.65376275 17 32 C16.34 32 15.68 32 15 32 C14.67 32.99 14.34 33.98 14 35 C13.34 35 12.68 35 12 35 C12 35.66 12 36.32 12 37 C10.625 38.625 10.625 38.625 9 40 C8.34 40 7.68 40 7 40 C6.67 40.99 6.34 41.98 6 43 C5.34 43 4.68 43 4 43 C4.061875 43.7425 4.12375 44.485 4.1875 45.25 C3.9648157 48.51603642 3.01393553 49.50271994 1 52 C0.29485154 54.14733927 0.29485154 54.14733927 0 56 C-0.66 56 -1.32 56 -2 56 C-4.16438179 68.98629076 -4.40629603 81.17747187 2 93 C2.99 93.495 2.99 93.495 4 94 C4 94.66 4 95.32 4 96 C-7.30886934 96.85349957 -17.20540055 91.8343574 -26 85 C-28.86960156 82.14856047 -31.49039224 79.17116625 -34 76 C-32.64448708 71.93346123 -29.89364239 70.51629828 -26.5 68.1875 C-25.87013184 67.74680176 -25.24026367 67.30610352 -24.59130859 66.85205078 C-19.77651864 63.49584087 -14.91921463 60.20139365 -10 57 C-14.4473645 58.45550111 -18.87511451 59.94827256 -23.27734375 61.53515625 C-24.41055054 61.94193604 -24.41055054 61.94193604 -25.56665039 62.35693359 C-27.09460329 62.90670575 -28.62116414 63.46036363 -30.14624023 64.01806641 C-33.21924194 65.12130217 -35.7087442 66 -39 66 C-42.76955881 53.34505256 -44.27250417 39.45459027 -38.08886719 27.19335938 C-35.91368775 23.33595902 -33.47661226 19.67049486 -31 16 C-30.67 15.34 -30.34 14.68 -30 14 C-29.34 14 -28.68 14 -28 14 C-28 13.34 -28 12.68 -28 12 C-26.3203125 10.7109375 -26.3203125 10.7109375 -24.125 9.375 C-23.40570313 8.92898437 -22.68640625 8.48296875 -21.9453125 8.0234375 C-20 7 -20 7 -18 7 C-18 6.34 -18 5.68 -18 5 C-16.22934889 4.35366725 -14.45847247 3.7079517 -12.6875 3.0625 C-11.70136719 2.70285156 -10.71523438 2.34320313 -9.69921875 1.97265625 C-6.12591246 0.6850249 -3.87004288 0 0 0 Z " fill="#AA1E6C" transform="translate(68,88)"/>
<path d="M0 0 C5.32122526 4.40640143 6.59978869 12.54600235 7.359375 19.1015625 C7.57977308 27.45464973 5.62561167 35.123165 3 43 C-0.71888239 42.49287967 -3.73454239 41.88391785 -7 40 C-7 39.34 -7 38.68 -7 38 C-7.969375 37.9175 -8.93875 37.835 -9.9375 37.75 C-14.67119101 37.1000875 -18.73984407 35.07694677 -23 33 C-23.33 33.33 -23.66 33.66 -24 34 C-21.81405921 35.73116808 -19.62630663 37.45996163 -17.4375 39.1875 C-16.82841797 39.67025391 -16.21933594 40.15300781 -15.59179688 40.65039062 C-11.47732709 43.89407315 -7.28428051 46.98391063 -3 50 C-4.34194428 56.1609976 -9.25713089 59.9385869 -14.3125 63.4375 C-17 65 -17 65 -19 65 C-19 65.66 -19 66.32 -19 67 C-26.36897561 70.06446761 -33.01790621 71.69121494 -41 72 C-40.0234375 70.17708333 -39.046875 68.35416667 -38.0703125 66.53125 C-35.26952062 59.90747941 -34.6588462 53.66291152 -34.6875 46.5625 C-34.67138672 45.76779297 -34.65527344 44.97308594 -34.63867188 44.15429688 C-34.63445084 38.96664255 -35.48616636 34.76765133 -37.35473633 29.92553711 C-38 28 -38 28 -38 25 C-37.17757812 24.84144531 -36.35515625 24.68289062 -35.5078125 24.51953125 C-28.75353624 23.10784071 -22.96852754 21.340967 -16.92578125 17.98828125 C-15 17 -15 17 -13 17 C-13 16.01 -13 15.02 -13 14 C-11.824375 13.87625 -11.824375 13.87625 -10.625 13.75 C-7.8553382 13.29150599 -7.8553382 13.29150599 -6.875 11 C-6.58625 10.34 -6.2975 9.68 -6 9 C-5.01 8.67 -4.02 8.34 -3 8 C-1.81608777 5.62374655 -1.81608777 5.62374655 -1 3 C-0.67 2.01 -0.34 1.02 0 0 Z " fill="#FC8561" transform="translate(195,112)"/>
<path d="M0 0 C0.99386719 0.00902344 1.98773438 0.01804688 3.01171875 0.02734375 C4.15060547 0.04474609 4.15060547 0.04474609 5.3125 0.0625 C5.3125 0.7225 5.3125 1.3825 5.3125 2.0625 C3.9925 2.3925 2.6725 2.7225 1.3125 3.0625 C1.3125 4.3825 1.3125 5.7025 1.3125 7.0625 C0.6525 7.0625 -0.0075 7.0625 -0.6875 7.0625 C-1.0175 9.7025 -1.3475 12.3425 -1.6875 15.0625 C-2.3475 15.0625 -3.0075 15.0625 -3.6875 15.0625 C-3.6875 24.6325 -3.6875 34.2025 -3.6875 44.0625 C-3.0275 44.0625 -2.3675 44.0625 -1.6875 44.0625 C-1.6875 45.0525 -1.6875 46.0425 -1.6875 47.0625 C-3.7704243 47.70965133 -5.85385539 48.35517166 -7.9375 49 C-9.67773438 49.53947266 -9.67773438 49.53947266 -11.453125 50.08984375 C-13.85839058 50.81316637 -16.24404044 51.48792411 -18.6875 52.0625 C-18.6875 52.7225 -18.6875 53.3825 -18.6875 54.0625 C-20.3671875 55.3515625 -20.3671875 55.3515625 -22.5625 56.6875 C-23.64144531 57.35652344 -23.64144531 57.35652344 -24.7421875 58.0390625 C-26.6875 59.0625 -26.6875 59.0625 -28.6875 59.0625 C-28.6875 59.7225 -28.6875 60.3825 -28.6875 61.0625 C-29.3475 61.0625 -30.0075 61.0625 -30.6875 61.0625 C-30.935 61.92875 -31.1825 62.795 -31.4375 63.6875 C-32.75528613 67.24552254 -34.48936822 69.9851155 -36.6875 73.0625 C-39.15286502 70.59713498 -39.67750042 68.55721352 -40.75 65.25 C-41.09160156 64.21230469 -41.43320312 63.17460938 -41.78515625 62.10546875 C-45.06007971 51.06146279 -43.94393746 40.99482575 -40.6875 30.0625 C-36.49287029 28.86165835 -34.17647741 29.29883882 -30.16796875 30.93359375 C-29.14638672 31.34287109 -28.12480469 31.75214844 -27.07226562 32.17382812 C-26.01716797 32.61146484 -24.96207031 33.04910156 -23.875 33.5 C-22.80056641 33.93376953 -21.72613281 34.36753906 -20.61914062 34.81445312 C-17.97037177 35.88573297 -15.32702875 36.96869552 -12.6875 38.0625 C-15.62197588 35.06963821 -18.58552041 32.56391399 -22 30.125 C-22.96164063 29.43535156 -23.92328125 28.74570313 -24.9140625 28.03515625 C-25.82929687 27.38417969 -26.74453125 26.73320313 -27.6875 26.0625 C-28.43773437 25.52496094 -29.18796875 24.98742187 -29.9609375 24.43359375 C-31.53414694 23.30666209 -33.11040606 22.18398902 -34.6875 21.0625 C-29.70528186 10.13064272 -19.05597758 5.68737153 -8.6875 1.0625 C-5.53819107 0.01273036 -3.29935544 -0.03881595 0 0 Z " fill="#676589" transform="translate(68.6875,40.9375)"/>
<path d="M0 0 C2.25245881 2.68841859 3.88213958 4.64641875 5 8 C6.32 8 7.64 8 9 8 C9.061875 8.61875 9.12375 9.2375 9.1875 9.875 C9.828919 12.27761141 9.828919 12.27761141 12.5625 13.25 C13.366875 13.4975 14.17125 13.745 15 14 C15 14.66 15 15.32 15 16 C15.59039062 16.13535156 16.18078125 16.27070313 16.7890625 16.41015625 C19 17 19 17 22.375 18.4375 C28.32952231 20.74685846 34.69819955 21.24767832 41 22 C35.58587667 31.29746774 29.72597665 36.38232563 20 41 C19.03707031 41.495 19.03707031 41.495 18.0546875 42 C13.15489945 44.37013003 9.89355654 44.34516038 4 45 C3.01 35.76 2.02 26.52 1 17 C0.67 17 0.34 17 0 17 C-0.08564209 17.77714355 -0.17128418 18.55428711 -0.25952148 19.35498047 C-0.64823945 22.86210367 -1.04279443 26.36854584 -1.4375 29.875 C-1.57220703 31.09832031 -1.70691406 32.32164062 -1.84570312 33.58203125 C-1.97783203 34.74863281 -2.10996094 35.91523438 -2.24609375 37.1171875 C-2.42676392 38.73536377 -2.42676392 38.73536377 -2.61108398 40.38623047 C-3 43 -3 43 -4 45 C-18.25470742 43.48354176 -29.74049361 36.97570801 -39 26 C-40.25 23.7265625 -40.25 23.7265625 -41 22 C-40.21753906 21.93941406 -39.43507813 21.87882812 -38.62890625 21.81640625 C-37.61699219 21.73261719 -36.60507813 21.64882812 -35.5625 21.5625 C-34.55316406 21.48128906 -33.54382813 21.40007812 -32.50390625 21.31640625 C-30.06359221 21.26788532 -30.06359221 21.26788532 -29 20 C-26.98688551 19.60430892 -24.96402792 19.25747809 -22.9375 18.9375 C-21.83277344 18.76089844 -20.72804688 18.58429688 -19.58984375 18.40234375 C-18.30787109 18.20318359 -18.30787109 18.20318359 -17 18 C-17 17.34 -17 16.68 -17 16 C-13.77208445 13.8480563 -12.71599191 13.79913557 -9 14 C-8.7525 13.4225 -8.505 12.845 -8.25 12.25 C-6.81700012 9.67060021 -5.21575324 7.93878408 -3 6 C-2.34 6 -1.68 6 -1 6 C-0.67 4.02 -0.34 2.04 0 0 Z " fill="#F72757" transform="translate(113,162)"/>
<path d="M0 0 C1.9446987 8.60632616 2.96140003 17.246086 4 26 C5.32 17.42 6.64 8.84 8 0 C20.77945578 1.59743197 31.01062587 6.1341321 39.5625 15.9375 C40.036875 16.618125 40.51125 17.29875 41 18 C36.34709829 20.76659021 32.02354503 21.67734436 26.68359375 22.47265625 C23.90935084 23.01781315 21.55215772 23.78682643 19 25 C18.31513275 26.32407669 17.65129797 27.65909241 17 29 C15.54991506 30.25674028 14.09505206 31.51010546 12.5859375 32.6953125 C10.73576794 34.16444094 10.73576794 34.16444094 8.3125 36.8125 C6 39 6 39 3 39 C-1 34.65714286 -1 34.65714286 -1 32 C-1.66 32 -2.32 32 -3 32 C-3 31.34 -3 30.68 -3 30 C-3.70125 29.7525 -4.4025 29.505 -5.125 29.25 C-8 28 -8 28 -10.875 26 C-14.33080787 23.78828296 -17.04538337 22.94910799 -21 22 C-21 21.34 -21 20.68 -21 20 C-22.19625 20.020625 -23.3925 20.04125 -24.625 20.0625 C-28.18004869 20.06882571 -31.50555624 19.69888875 -35 19 C-28.45957236 8.89439808 -19.17352163 3.2356853 -7.515625 0.39453125 C-4.96663024 -0.00523346 -2.5756639 -0.0735904 0 0 Z " fill="#69B7BA" transform="translate(109,22)"/>
<path d="M0 0 C7.35342179 -0.20177072 13.94887561 -0.21211746 21 2 C21 2.66 21 3.32 21 4 C22.32 4 23.64 4 25 4 C25 4.66 25 5.32 25 6 C25.86625 6.185625 25.86625 6.185625 26.75 6.375 C29.02335767 7.00648824 30.9253529 7.88858191 33 9 C33 9.66 33 10.32 33 11 C33.804375 11.268125 34.60875 11.53625 35.4375 11.8125 C36.283125 12.204375 37.12875 12.59625 38 13 C38.495 14.485 38.495 14.485 39 16 C39.66 16 40.32 16 41 16 C41 17.98 41 19.96 41 22 C40.34 22 39.68 22 39 22 C39 22.66 39 23.32 39 24 C37.02 24.66 35.04 25.32 33 26 C33 26.66 33 27.32 33 28 C31.35 28.66 29.7 29.32 28 30 C28 30.66 28 31.32 28 32 C27.01 32 26.02 32 25 32 C25 32.99 25 33.98 25 35 C23.02 35.495 23.02 35.495 21 36 C21 35.34 21 34.68 21 34 C19.68 34.66 18.36 35.32 17 36 C17 34.68 17 33.36 17 32 C15.35 32 13.7 32 12 32 C11.8453125 33.85625 11.8453125 33.85625 11.6875 35.75 C11.38353701 39.39755586 10.24337892 41.14811434 8 44 C8.02618408 43.27522461 8.05236816 42.55044922 8.0793457 41.80371094 C8.1846311 38.45270328 8.24873827 35.10204505 8.3125 31.75 C8.35439453 30.61046875 8.39628906 29.4709375 8.43945312 28.296875 C8.56012481 19.80158843 6.79991752 13.56448696 3 6 C2.67193359 5.31679688 2.34386719 4.63359375 2.00585938 3.9296875 C1.36171765 2.60758276 0.68644937 1.30064091 0 0 Z " fill="#FBE977" transform="translate(151,40)"/>
<path d="M0 0 C1.69141656 0.08963062 3.37959602 0.24577676 5.0625 0.4375 C6.44115234 0.59025391 6.44115234 0.59025391 7.84765625 0.74609375 C8.55792969 0.82988281 9.26820312 0.91367188 10 1 C9.7834375 1.8971875 9.566875 2.794375 9.34375 3.71875 C6.14786868 18.04103296 4.72555734 31.57534672 12 45 C12.99 45.495 12.99 45.495 14 46 C14 46.66 14 47.32 14 48 C2.69113066 48.85349957 -7.20540055 43.8343574 -16 37 C-18.86960156 34.14856047 -21.49039224 31.17116625 -24 28 C-22.64448708 23.93346123 -19.89364239 22.51629828 -16.5 20.1875 C-15.87013184 19.74680176 -15.24026367 19.30610352 -14.59130859 18.85205078 C-9.77651864 15.49584087 -4.91921463 12.20139365 0 9 C-0.33644531 8.38511719 -0.67289063 7.77023438 -1.01953125 7.13671875 C-2 5 -2 5 -1.6875 2.8125 C-1 1 -1 1 0 0 Z " fill="#B52B77" transform="translate(58,136)"/>
<path d="M0 0 C3.96813015 0.90787554 7.82123166 2.1757207 11.6875 3.4375 C12.37650391 3.65470703 13.06550781 3.87191406 13.77539062 4.09570312 C15.53697413 4.6725048 17.27144873 5.33068159 19 6 C19.33 6.66 19.66 7.32 20 8 C22.11327425 8.90725434 22.11327425 8.90725434 24.5625 9.625 C25.38878906 9.88539063 26.21507812 10.14578125 27.06640625 10.4140625 C27.70449219 10.60742188 28.34257812 10.80078125 29 11 C29.33 9.02 29.66 7.04 30 5 C30.33 5 30.66 5 31 5 C31.495 11.93 31.495 11.93 32 19 C27 21 27 21 24 20 C23.67 20.99 23.34 21.98 23 23 C22.34 22.67 21.68 22.34 21 22 C21.33 20.68 21.66 19.36 22 18 C21.33355469 17.52691406 20.66710937 17.05382812 19.98046875 16.56640625 C13.11492499 11.64049863 6.3361076 6.60077596 0 1 C0 0.67 0 0.34 0 0 Z " fill="#EDE7E2" transform="translate(169,144)"/>
<path d="M0 0 C2.64 0 5.28 0 8 0 C8.66 1.65 9.32 3.3 10 5 C9.34 5.66 8.68 6.32 8 7 C7.83318891 10.08347826 7.83318891 10.08347826 8 13 C7.34 12.34 6.68 11.68 6 11 C1.48465226 11.30102318 -1.19921473 12.70185077 -5 15 C-7.22093239 15.81448182 -9.46153451 16.52711415 -11.71875 17.234375 C-13.85322972 17.95074148 -15.83633941 18.79977684 -17.875 19.75 C-21 21 -21 21 -24 20 C-23.34 20 -22.68 20 -22 20 C-22 19.34 -22 18.68 -22 18 C-20.02 17.34 -18.04 16.68 -16 16 C-16 15.01 -16 14.02 -16 13 C-15.01 13 -14.02 13 -13 13 C-13 12.34 -13 11.68 -13 11 C-11.35 10.34 -9.7 9.68 -8 9 C-8 8.34 -8 7.68 -8 7 C-5 5 -5 5 -2 5 C-2 4.34 -2 3.68 -2 3 C-1.34 3 -0.68 3 0 3 C0 2.01 0 1.02 0 0 Z " fill="#EFE9CA" transform="translate(192,59)"/>
<path d="M0 0 C4.67186387 -0.3235923 6.96611455 0.16947253 10.6875 3 C11.54085937 3.63679688 12.39421875 4.27359375 13.2734375 4.9296875 C14.17320313 5.61289063 15.07296875 6.29609375 16 7 C17.93678825 8.37600237 19.87428441 9.75100889 21.8125 11.125 C25.55501415 13.84971993 28.89351701 16.5721567 32 20 C29.88349541 19.29449847 27.76705187 18.58882018 25.65087891 17.88232422 C23.91722077 17.30528973 22.18255541 16.73127037 20.44677734 16.16064453 C17.85626614 15.3063638 15.27174615 14.43552997 12.6875 13.5625 C11.80771484 13.27568359 10.92792969 12.98886719 10.02148438 12.69335938 C1.68031872 9.84963623 1.68031872 9.84963623 -1 6 C-0.75 2.75 -0.75 2.75 0 0 Z " fill="#DFE0E5" transform="translate(26,60)"/>
<path d="M0 0 C-0.46784912 0.32685791 -0.93569824 0.65371582 -1.41772461 0.99047852 C-3.59268627 2.51206874 -5.76525783 4.03703001 -7.9375 5.5625 C-8.71569092 6.10737061 -9.49388184 6.65224121 -10.2956543 7.21362305 C-15.12060615 10.61119961 -19.78274197 14.11114869 -24.23828125 17.98828125 C-26 19 -26 19 -28.04296875 18.73046875 C-29.01169922 18.36888672 -29.01169922 18.36888672 -30 18 C-30.99 17.67 -31.98 17.34 -33 17 C-32.67 14.69 -32.34 12.38 -32 10 C-31.29915283 9.73783691 -30.59830566 9.47567383 -29.8762207 9.20556641 C-26.68809622 8.01262483 -23.50029525 6.81882108 -20.3125 5.625 C-19.20970703 5.2125 -18.10691406 4.8 -16.97070312 4.375 C-15.90400391 3.97539062 -14.83730469 3.57578125 -13.73828125 3.1640625 C-12.75899658 2.79748535 -11.77971191 2.4309082 -10.77075195 2.05322266 C-8.93582497 1.35572728 -7.12004724 0.60542471 -5.32885742 -0.19775391 C-3 -1 -3 -1 0 0 Z " fill="#EBD6E3" transform="translate(59,145)"/>
<path d="M0 0 C1.94126501 2.91189751 2.29877111 3.83865045 2.6328125 7.1328125 C2.71660156 7.93976563 2.80039063 8.74671875 2.88671875 9.578125 C2.96535156 10.41859375 3.04398437 11.2590625 3.125 12.125 C3.25455078 13.35089844 3.25455078 13.35089844 3.38671875 14.6015625 C3.93405454 20.0922961 4.0777045 25.48298015 4 31 C4.66 31.33 5.32 31.66 6 32 C4.515 34.475 4.515 34.475 3 37 C1.02 36.67 -0.96 36.34 -3 36 C-4.50644041 29.13063175 -3.49542927 22.66762207 -2.625 15.75 C-2.48578125 14.56664062 -2.3465625 13.38328125 -2.203125 12.1640625 C-1.15170201 3.45510603 -1.15170201 3.45510603 0 0 Z " fill="#EDE2E5" transform="translate(113,176)"/>
<path d="M0 0 C2.0625 0.4375 2.0625 0.4375 4 1 C4 1.66 4 2.32 4 3 C4.66 3 5.32 3 6 3 C6.95978258 7.51486511 6.91203745 11.15684349 6.22265625 15.7109375 C5.94711914 17.57685547 5.94711914 17.57685547 5.66601562 19.48046875 C5.46685547 20.76566406 5.26769531 22.05085938 5.0625 23.375 C4.86439015 24.6964883 4.66711634 26.01810222 4.47070312 27.33984375 C3.9886715 30.56122586 3.49817352 33.78108147 3 37 C0.47256372 34.47256372 0.57525782 33.17179721 0.18359375 29.66015625 C0.05919922 28.59732422 -0.06519531 27.53449219 -0.19335938 26.43945312 C-0.37608398 24.76786133 -0.37608398 24.76786133 -0.5625 23.0625 C-0.81113553 20.86558199 -1.06232251 18.66895081 -1.31640625 16.47265625 C-1.42412354 15.49562744 -1.53184082 14.51859863 -1.64282227 13.51196289 C-1.94047105 10.87937344 -1.94047105 10.87937344 -3 8 C-1.40909091 1.40909091 -1.40909091 1.40909091 0 0 Z " fill="#E1E9EA" transform="translate(111,13)"/>
<path d="M0 0 C1.50338335 2.89985944 2.75667879 5.83047302 3.9375 8.875 C5.10560621 11.8412023 6.32144835 14.64289669 7.75 17.5 C9 20 9 20 9 22 C0.84524526 22.433422 -6.17683695 21.29370226 -14 19 C-14 18.01 -14 17.02 -14 16 C-10.04 16 -6.08 16 -2 16 C-1.67 14.68 -1.34 13.36 -1 12 C-0.67 12.66 -0.34 13.32 0 14 C0.66 14 1.32 14 2 14 C2 12.68 2 11.36 2 10 C1.01 10 0.02 10 -1 10 C-2.23076923 4.58461538 -2.23076923 4.58461538 -1.0625 1.625 C-0.711875 1.08875 -0.36125 0.5525 0 0 Z " fill="#656E7E" transform="translate(106,96)"/>
<path d="M0 0 C2 3 2 3 3 5 C3.99 5 4.98 5 6 5 C6 4.01 6 3.02 6 2 C8.375 1.875 8.375 1.875 11 2 C11.66 2.66 12.32 3.32 13 4 C16.09926819 3.67801034 16.09926819 3.67801034 19 3 C19.33 3.66 19.66 4.32 20 5 C16.89878289 6.17461555 13.79357759 7.33830456 10.6875 8.5 C9.36588867 9.00080078 9.36588867 9.00080078 8.01757812 9.51171875 C6.74624023 9.98544922 6.74624023 9.98544922 5.44921875 10.46875 C4.66893311 10.76201172 3.88864746 11.05527344 3.0847168 11.35742188 C1 12 1 12 -2 12 C-2.66 9.36 -3.32 6.72 -4 4 C-3.34 4 -2.68 4 -2 4 C-2 3.34 -2 2.68 -2 2 C-1.34 2 -0.68 2 0 2 C0 1.34 0 0.68 0 0 Z " fill="#B02C75" transform="translate(31,142)"/>
<path d="M0 0 C4.7329935 3.91929834 5.73822299 10.23725725 7 16 C7.29048247 20.03100289 7.26147533 23.96892203 7 28 C6.67 28 6.34 28 6 28 C5.87882812 27.01257813 5.75765625 26.02515625 5.6328125 25.0078125 C5.46523437 23.72648437 5.29765625 22.44515625 5.125 21.125 C4.96257812 19.84882813 4.80015625 18.57265625 4.6328125 17.2578125 C4.30122527 13.92835773 4.30122527 13.92835773 2 12 C0.02 12.99 0.02 12.99 -2 14 C-2.66 13.34 -3.32 12.68 -4 12 C-5.11375 12.66 -6.2275 13.32 -7.375 14 C-10.75 16 -10.75 16 -13 16 C-13 15.34 -13 14.68 -13 14 C-12.21625 13.9175 -11.4325 13.835 -10.625 13.75 C-7.8553382 13.29150599 -7.8553382 13.29150599 -6.875 11 C-6.441875 10.01 -6.441875 10.01 -6 9 C-5.01 8.67 -4.02 8.34 -3 8 C-1.81608777 5.62374655 -1.81608777 5.62374655 -1 3 C-0.67 2.01 -0.34 1.02 0 0 Z " fill="#FA8C5E" transform="translate(195,112)"/>
<path d="M0 0 C1.98 0 3.96 0 6 0 C6.66 1.65 7.32 3.3 8 5 C7.34 5.66 6.68 6.32 6 7 C5.83318891 10.08347826 5.83318891 10.08347826 6 13 C5.34 12.34 4.68 11.68 4 11 C1.9904534 11 -0.02138222 11.00501725 -2.02734375 11.125 C-4 11 -4 11 -7 9 C-7 8.34 -7 7.68 -7 7 C-5.5459375 6.38125 -5.5459375 6.38125 -4.0625 5.75 C-0.87739901 4.35100832 -0.87739901 4.35100832 -0.125 1.8125 C-0.08375 1.214375 -0.0425 0.61625 0 0 Z " fill="#EAEAEC" transform="translate(194,59)"/>
<path d="M0 0 C0.99 0.33 1.98 0.66 3 1 C2.34 1.66 1.68 2.32 1 3 C0.01 3 -0.98 3 -2 3 C-2 3.66 -2 4.32 -2 5 C-2.66 5 -3.32 5 -4 5 C-4.33 6.65 -4.66 8.3 -5 10 C-7.60582371 10.93065133 -8.64198224 11.14917407 -11.25 10.0625 C-11.8275 9.711875 -12.405 9.36125 -13 9 C-12.67 6.69 -12.34 4.38 -12 2 C-10.95199219 1.90912109 -10.95199219 1.90912109 -9.8828125 1.81640625 C-8.97273438 1.73261719 -8.06265625 1.64882812 -7.125 1.5625 C-6.22007813 1.48128906 -5.31515625 1.40007812 -4.3828125 1.31640625 C-1.98889139 1.13010715 -1.98889139 1.13010715 0 0 Z " fill="#EAEBEA" transform="translate(39,153)"/>
<path d="M0 0 C1.423125 0.2784375 1.423125 0.2784375 2.875 0.5625 C5.89868793 1.28686632 5.89868793 1.28686632 8 0 C8 2.64 8 5.28 8 8 C9.98 8 11.96 8 14 8 C15.25664978 10.90600261 16 12.79604584 16 16 C9.72408414 13.84825742 6.23093266 10.72756245 3 5 C2.443125 4.443125 1.88625 3.88625 1.3125 3.3125 C0.879375 2.879375 0.44625 2.44625 0 2 C0 1.34 0 0.68 0 0 Z " fill="#5C6384" transform="translate(72,96)"/>
<path d="M0 0 C0.76183594 -0.00515625 1.52367187 -0.0103125 2.30859375 -0.015625 C4.77693018 0.2752708 6.420186 1.02024344 8.5625 2.25 C8.5625 4.23 8.5625 6.21 8.5625 8.25 C2.53479862 7.77412884 -2.20428289 5.05277043 -7.4375 2.25 C-4.32763793 0.17675862 -3.54641613 -0.02392186 0 0 Z " fill="#FACF61" transform="translate(135.4375,127.75)"/>
<path d="M0 0 C2.875 -0.125 2.875 -0.125 6 0 C8 2 8 2 8.25 4.5 C8 7 8 7 6 9 C3.5 9.25 3.5 9.25 1 9 C0.34 8.34 -0.32 7.68 -1 7 C-0.625 3.375 -0.625 3.375 0 0 Z " fill="#969696" transform="translate(206,108)"/>
<path d="M0 0 C0.66 0.66 1.32 1.32 2 2 C0.02 2.33 -1.96 2.66 -4 3 C-3.34 3.33 -2.68 3.66 -2 4 C-2 5.65 -2 7.3 -2 9 C-2.99 9.33 -3.98 9.66 -5 10 C-6.33631236 8.6905332 -7.66897925 7.37734515 -9 6.0625 C-9.7425 5.33160156 -10.485 4.60070312 -11.25 3.84765625 C-13 2 -13 2 -13 1 C-8.63182208 0.30109153 -4.426216 -0.30880577 0 0 Z " fill="#FCCE65" transform="translate(130,118)"/>
<path d="M0 0 C7.35342179 -0.20177072 13.94887561 -0.21211746 21 2 C21 2.66 21 3.32 21 4 C16.71 4.66 12.42 5.32 8 6 C8 5.34 8 4.68 8 4 C9.32 3.67 10.64 3.34 12 3 C9.36 2.67 6.72 2.34 4 2 C4.33 3.98 4.66 5.96 5 8 C2.74754119 5.31158141 1.11786042 3.35358125 0 0 Z " fill="#FCED93" transform="translate(151,40)"/>
<path d="M0 0 C2.5 0.25 2.5 0.25 4.5 2.25 C4.17028521 5.54714793 3.8773161 6.8726839 1.5 9.25 C-3.05555556 8.69444444 -3.05555556 8.69444444 -4.5 7.25 C-4.6875 4.8125 -4.6875 4.8125 -4.5 2.25 C-2.5 0.25 -2.5 0.25 0 0 Z " fill="#8E8E8E" transform="translate(65.5,190.75)"/>
<path d="M0 0 C2.5 0.25 2.5 0.25 4.5 2.25 C4.17028521 5.54714793 3.8773161 6.8726839 1.5 9.25 C-3.05555556 8.69444444 -3.05555556 8.69444444 -4.5 7.25 C-4.6875 4.8125 -4.6875 4.8125 -4.5 2.25 C-2.5 0.25 -2.5 0.25 0 0 Z " fill="#8E8E8E" transform="translate(161.5,190.75)"/>
<path d="M0 0 C1 1 1 1 1.1875 3.4375 C1 6 1 6 -1 8 C-3.5 8.25 -3.5 8.25 -6 8 C-6.66 7.34 -7.32 6.68 -8 6 C-7.75 2.9375 -7.75 2.9375 -7 0 C-4.31633121 -1.3418344 -2.84719317 -0.73004953 0 0 Z " fill="#8B8B8B" transform="translate(68,25)"/>
<path d="M0 0 C3.49989299 0.43381027 4.96179486 1.71883058 7.25 4.3125 C10.80909863 8.06460831 14.28351727 9.93136722 19 12 C16 13 16 13 12.5625 11.8125 C9.30710329 10.15624553 7.35734265 8.73451747 5 6 C4.67 6.66 4.34 7.32 4 8 C2.35 8 0.7 8 -1 8 C-1.04241723 5.66705225 -1.04092937 3.33297433 -1 1 C-0.67 0.67 -0.34 0.34 0 0 Z " fill="#FA553D" transform="translate(115,120)"/>
<path d="M0 0 C1 1 1 1 1.125 4 C1 7 1 7 0 8 C-3 8.125 -3 8.125 -6 8 C-7 7 -7 7 -7.0625 3.4375 C-7.041875 2.303125 -7.02125 1.16875 -7 0 C-4.31633121 -1.3418344 -2.84719317 -0.73004953 0 0 Z " fill="#8F8F8F" transform="translate(21,108)"/>
<path d="M0 0 C4.55555556 0.55555556 4.55555556 0.55555556 6 2 C6.125 5 6.125 5 6 8 C5 9 5 9 2 9.125 C-1 9 -1 9 -2 8 C-2.1875 5.0625 -2.1875 5.0625 -2 2 C-1.34 1.34 -0.68 0.68 0 0 Z " fill="#939393" transform="translate(160,24)"/>
<path d="M0 0 C1.670625 0.37125 1.670625 0.37125 3.375 0.75 C3.705 1.41 4.035 2.07 4.375 2.75 C6.355 2.75 8.335 2.75 10.375 2.75 C10.375 3.41 10.375 4.07 10.375 4.75 C11.365 5.08 12.355 5.41 13.375 5.75 C14.0625 7.8125 14.0625 7.8125 14.375 9.75 C12.395 9.09 10.415 8.43 8.375 7.75 C8.375 7.09 8.375 6.43 8.375 5.75 C6.89 5.5953125 6.89 5.5953125 5.375 5.4375 C1.09202837 4.84191294 -2.62496371 3.36404973 -6.625 1.75 C-3.625 -0.25 -3.625 -0.25 0 0 Z " fill="#F78B6D" transform="translate(179.625,144.25)"/>
<path d="M0 0 C5.625 -0.25 5.625 -0.25 9 2 C9 3.32 9 4.64 9 6 C7.35 6 5.7 6 4 6 C4 6.66 4 7.32 4 8 C3.01 8.33 2.02 8.66 1 9 C-1.09230769 4.56923077 -1.09230769 4.56923077 -0.625 1.6875 C-0.41875 1.130625 -0.2125 0.57375 0 0 Z " fill="#EAEAEA" transform="translate(26,60)"/>
<path d="M0 0 C0 0.66 0 1.32 0 2 C-5.39460953 4.27141454 -10.26157749 4.20413361 -16 4 C-16.33 4.99 -16.66 5.98 -17 7 C-17.66 6.67 -18.32 6.34 -19 6 C-19 5.01 -19 4.02 -19 3 C-12.47059106 0.04328652 -7.12600133 -0.35368021 0 0 Z " fill="#6C6E8D" transform="translate(74,41)"/>
<path d="M0 0 C2.25 0.25 2.25 0.25 4 1 C2.52307692 5.67692308 2.52307692 5.67692308 -0.125 7.3125 C-1.053125 7.6528125 -1.053125 7.6528125 -2 8 C-1.34 6.68 -0.68 5.36 0 4 C-0.66 4 -1.32 4 -2 4 C-2.33 4.99 -2.66 5.98 -3 7 C-4.32796291 7.35412344 -5.66216607 7.68521554 -7 8 C-8.0194119 8.98020375 -9.02246356 9.97803008 -10 11 C-10.66 11 -11.32 11 -12 11 C-12.33 11.66 -12.66 12.32 -13 13 C-13 12.34 -13 11.68 -13 11 C-13.66 10.67 -14.32 10.34 -15 10 C-14.25234375 9.61328125 -13.5046875 9.2265625 -12.734375 8.828125 C-11.74953125 8.30734375 -10.7646875 7.7865625 -9.75 7.25 C-8.77546875 6.73953125 -7.8009375 6.2290625 -6.796875 5.703125 C-3.93925059 4.11392492 -3.93925059 4.11392492 -1.78125 1.78125 C-1.1934375 1.1934375 -0.605625 0.605625 0 0 Z " fill="#F6F6F7" transform="translate(148,192)"/>
<path d="M0 0 C4.00649379 0.8983633 7.8646946 2.25148485 11.75 3.5625 C12.44738281 3.79646484 13.14476562 4.03042969 13.86328125 4.27148438 C15.5759787 4.84629379 17.28805186 5.42296275 19 6 C19 6.66 19 7.32 19 8 C16.69 8 14.38 8 12 8 C11.67 8.66 11.34 9.32 11 10 C9.16375669 8.52444734 7.3310715 7.04446569 5.5 5.5625 C4.4790625 4.73878906 3.458125 3.91507813 2.40625 3.06640625 C1.6121875 2.38449219 0.818125 1.70257813 0 1 C0 0.67 0 0.34 0 0 Z " fill="#F3D1C4" transform="translate(169,144)"/>
<path d="M0 0 C0.33 0 0.66 0 1 0 C1.06058594 1.02738281 1.12117188 2.05476562 1.18359375 3.11328125 C1.66282871 11.08960238 2.20809418 19.04724363 3 27 C-0.59890082 21.60164876 -1.29870464 17.30145741 -1.1875 10.875 C-1.18685547 10.15957031 -1.18621094 9.44414062 -1.18554688 8.70703125 C-1.15897902 5.54840896 -1.00523113 3.01569338 0 0 Z " fill="#D41C5F" transform="translate(65,149)"/>
<path d="M0 0 C1.95803507 -0.05389087 3.91648909 -0.09274217 5.875 -0.125 C7.51082031 -0.15980469 7.51082031 -0.15980469 9.1796875 -0.1953125 C12 0 12 0 14 2 C12.85546875 3.55078125 12.85546875 3.55078125 11 5 C8.30078125 4.85546875 8.30078125 4.85546875 5.3125 4.1875 C4.31863281 3.97480469 3.32476562 3.76210937 2.30078125 3.54296875 C1.54152344 3.36378906 0.78226562 3.18460937 0 3 C0 2.01 0 1.02 0 0 Z " fill="#646B81" transform="translate(92,112)"/>
<path d="M0 0 C4.97093824 0.41153737 9.44508386 0.79600832 14 3 C14 3.33 14 3.66 14 4 C11.69 4 9.38 4 7 4 C7.33 5.32 7.66 6.64 8 8 C5.50638429 6.79618552 3.31856917 5.54571278 1 4 C0.3125 1.875 0.3125 1.875 0 0 Z " fill="#F1E0DC" transform="translate(180,151)"/>
<path d="M0 0 C1.73169596 3.1622274 2.7128976 6.26742722 3.625 9.75 C3.88539062 10.73484375 4.14578125 11.7196875 4.4140625 12.734375 C4.60742188 13.48203125 4.80078125 14.2296875 5 15 C2.69 15 0.38 15 -2 15 C-1.67 14.01 -1.34 13.02 -1 12 C-0.67 12.66 -0.34 13.32 0 14 C0.66 14 1.32 14 2 14 C2 12.68 2 11.36 2 10 C1.01 10 0.02 10 -1 10 C-2.23076923 4.58461538 -2.23076923 4.58461538 -1.0625 1.625 C-0.5365625 0.820625 -0.5365625 0.820625 0 0 Z " fill="#4D7988" transform="translate(106,96)"/>
<path d="M0 0 C4.29 0 8.58 0 13 0 C13 0.66 13 1.32 13 2 C12.01 2.495 12.01 2.495 11 3 C10.61781233 4.65614657 10.28604898 6.32457024 10 8 C9.67 8.66 9.34 9.32 9 10 C8.34 10 7.68 10 7 10 C7.33 7.36 7.66 4.72 8 2 C7.34 2 6.68 2 6 2 C5.34 3.32 4.68 4.64 4 6 C4 4.35 4 2.7 4 1 C2.68 0.67 1.36 0.34 0 0 Z " fill="#E35647" transform="translate(104,118)"/>
<path d="M0 0 C0.33 0 0.66 0 1 0 C1.93196273 5.21899129 2.03645841 8.8961146 0.546875 13.96875 C-0.34256753 17.2723937 -0.63599304 20.60260173 -1 24 C-1.33 24 -1.66 24 -2 24 C-2.3690205 7.1070615 -2.3690205 7.1070615 0 0 Z " fill="#5CA88F" transform="translate(108,72)"/>
<path d="M0 0 C-0.33 1.32 -0.66 2.64 -1 4 C-6.94 4 -12.88 4 -19 4 C-19 3.67 -19 3.34 -19 3 C-16.96040523 2.49161436 -14.91820862 1.99366114 -12.875 1.5 C-11.73804687 1.2215625 -10.60109375 0.943125 -9.4296875 0.65625 C-6.18533302 0.03546235 -3.29185543 -0.12006768 0 0 Z " fill="#EAD86E" transform="translate(136,115)"/>
<path d="M0 0 C2.12109375 0.3984375 2.12109375 0.3984375 4 1 C3.46890625 1.45890625 2.9378125 1.9178125 2.390625 2.390625 C-1.18324699 5.49493717 -4.71854059 8.58181312 -8 12 C-8.33 11.01 -8.66 10.02 -9 9 C-7.33333333 7.33333333 -5.66666667 5.66666667 -4 4 C-2.9790625 2.824375 -2.9790625 2.824375 -1.9375 1.625 C-1.298125 1.08875 -0.65875 0.5525 0 0 Z " fill="#67B3A7" transform="translate(124,48)"/>
<path d="M0 0 C2.13586678 3.20380017 2.23132175 4.01939967 2.125 7.6875 C2.10695313 8.49574219 2.08890625 9.30398437 2.0703125 10.13671875 C2.03550781 11.05904297 2.03550781 11.05904297 2 12 C1.34 12 0.68 12 0 12 C-0.33 14.31 -0.66 16.62 -1 19 C-1.33 19 -1.66 19 -2 19 C-1.85913398 16.39547729 -1.71251536 13.79149803 -1.5625 11.1875 C-1.50352539 10.08051758 -1.50352539 10.08051758 -1.44335938 8.95117188 C-1.25618965 5.76928658 -1.01279207 3.03837622 0 0 Z " fill="#F5C5D0" transform="translate(113,176)"/>
<path d="M0 0 C1.21065165 3.63195496 0.62784815 5.06531629 -0.4375 8.6875 C-0.72496094 9.68136719 -1.01242188 10.67523438 -1.30859375 11.69921875 C-1.53675781 12.45847656 -1.76492187 13.21773437 -2 14 C-2.99 13.67 -3.98 13.34 -5 13 C-4.93993922 11.54052295 -4.8511311 10.08220728 -4.75 8.625 C-4.70359375 7.81289062 -4.6571875 7.00078125 -4.609375 6.1640625 C-4 4 -4 4 -1.953125 2.7109375 C-1.30859375 2.47632813 -0.6640625 2.24171875 0 2 C0 1.34 0 0.68 0 0 Z " fill="#B82A79" transform="translate(31,128)"/>
<path d="M0 0 C0.99 0 1.98 0 3 0 C4.125 6.625 4.125 6.625 3 10 C2.67 9.34 2.34 8.68 2 8 C0.02 8 -1.96 8 -4 8 C-3.34 7.67 -2.68 7.34 -2 7 C-2.33 6.01 -2.66 5.02 -3 4 C-2.67 3.34 -2.34 2.68 -2 2 C-1.34 2 -0.68 2 0 2 C0 1.34 0 0.68 0 0 Z " fill="#ECEADB" transform="translate(196,62)"/>
<path d="M0 0 C8.57142857 3.14285714 8.57142857 3.14285714 12 5 C9.36 5.33 6.72 5.66 4 6 C4 6.33 4 6.66 4 7 C2.35 7 0.7 7 -1 7 C-1 3 -1 3 0 0 Z " fill="#F7EBED" transform="translate(90,201)"/>
<path d="M0 0 C0.99 0.33 1.98 0.66 3 1 C2.47731534 3.76276177 1.89130413 6.3260876 1 9 C0.65772583 10.33106622 0.32248257 11.66400079 0 13 C-0.66 13 -1.32 13 -2 13 C-3.18771723 9.57056481 -2.80226223 7.62215325 -1.5625 4.25 C-1.27503906 3.45078125 -0.98757812 2.6515625 -0.69140625 1.828125 C-0.46324219 1.22484375 -0.23507813 0.6215625 0 0 Z " fill="#B73279" transform="translate(30,115)"/>
<path d="M0 0 C-3.63 2.31 -7.26 4.62 -11 7 C-11.99 6.01 -12.98 5.02 -14 4 C-12.23494565 3.13395466 -10.46271926 2.28251358 -8.6875 1.4375 C-7.70136719 0.96183594 -6.71523438 0.48617187 -5.69921875 -0.00390625 C-3 -1 -3 -1 0 0 Z " fill="#EFCAE0" transform="translate(59,145)"/>
<path d="M0 0 C0.99 0 1.98 0 3 0 C3 0.66 3 1.32 3 2 C3.99 2.33 4.98 2.66 6 3 C4.23494565 3.86604534 2.46271926 4.71748642 0.6875 5.5625 C-0.79169922 6.27599609 -0.79169922 6.27599609 -2.30078125 7.00390625 C-5 8 -5 8 -8 7 C-7.34 7 -6.68 7 -6 7 C-6 6.34 -6 5.68 -6 5 C-4.02 4.34 -2.04 3.68 0 3 C0 2.01 0 1.02 0 0 Z " fill="#EEE8CE" transform="translate(176,72)"/>
<path d="M0 0 C1.32 0 2.64 0 4 0 C3.4140625 6.15234375 3.4140625 6.15234375 3 8 C2.01 8.495 2.01 8.495 1 9 C0.01 8.34 -0.98 7.68 -2 7 C-2.3125 4.5 -2.3125 4.5 -2 2 C-1.34 1.34 -0.68 0.68 0 0 Z " fill="#BA307D" transform="translate(58,136)"/>
<path d="M0 0 C4.70999292 7.06498939 4.24577235 14.80758825 4 23 C3.67 23 3.34 23 3 23 C2.87882813 22.02417969 2.75765625 21.04835937 2.6328125 20.04296875 C2.46523437 18.77066406 2.29765625 17.49835938 2.125 16.1875 C1.96257812 14.92292969 1.80015625 13.65835938 1.6328125 12.35546875 C1.20431547 8.88300683 1.20431547 8.88300683 -1 6 C-0.625 2.8125 -0.625 2.8125 0 0 Z " fill="#F09D84" transform="translate(198,117)"/>
<path d="M0 0 C0.66 0.99 1.32 1.98 2 3 C1.15955106 6.43183318 0.51471866 8.48528134 -2 11 C-2.66 11 -3.32 11 -4 11 C-4 9.02 -4 7.04 -4 5 C-3.34 5 -2.68 5 -2 5 C-2 4.01 -2 3.02 -2 2 C-1.34 2 -0.68 2 0 2 C0 1.34 0 0.68 0 0 Z " fill="#F52F60" transform="translate(116,168)"/>
<path d="M0 0 C2 3 2 3 1.75 5.25 C0.86125001 8.50874995 -0.04689423 11.7594404 -1 15 C-1.33 15 -1.66 15 -2 15 C-2.19477739 13.37585622 -2.38059458 11.75063577 -2.5625 10.125 C-2.66691406 9.22007813 -2.77132813 8.31515625 -2.87890625 7.3828125 C-3 5 -3 5 -2 3 C-1.34 3 -0.68 3 0 3 C0 2.01 0 1.02 0 0 Z " fill="#F7EDF5" transform="translate(29,109)"/>
<path d="M0 0 C2.91491002 4.37236503 3.22085649 8.26469904 2.5625 13.4375 C2.376875 14.283125 2.19125 15.12875 2 16 C1.34 16 0.68 16 0 16 C0 10.72 0 5.44 0 0 Z " fill="#FDFAE1" transform="translate(202,80)"/>
<path d="M0 0 C0.33 0 0.66 0 1 0 C1.18175781 0.89203125 1.36351563 1.7840625 1.55078125 2.703125 C1.80214844 3.87359375 2.05351563 5.0440625 2.3125 6.25 C2.55613281 7.41015625 2.79976563 8.5703125 3.05078125 9.765625 C3.96557824 12.88271103 4.9776848 14.53016967 7 17 C7 17.66 7 18.32 7 19 C4 18 4 18 2.83203125 15.99609375 C0.5882951 10.36526164 -0.44881077 6.05894543 0 0 Z " fill="#EF1D3D" transform="translate(105,141)"/>
<path d="M0 0 C0.66 0.66 1.32 1.32 2 2 C0.02 2.33 -1.96 2.66 -4 3 C-4 4.32 -4 5.64 -4 7 C-4.99 6.67 -5.98 6.34 -7 6 C-6.67 5.01 -6.34 4.02 -6 3 C-7.32 2.67 -8.64 2.34 -10 2 C-6.60535554 -0.08901197 -3.95158471 -0.34361606 0 0 Z " fill="#FAD75B" transform="translate(130,118)"/>
<path d="M0 0 C0.66 0 1.32 0 2 0 C2.28571429 8.57142857 2.28571429 8.57142857 0 12 C-0.66 12 -1.32 12 -2 12 C-1.85831863 10.56208484 -1.71148957 9.1246763 -1.5625 7.6875 C-1.48128906 6.88699219 -1.40007812 6.08648437 -1.31640625 5.26171875 C-1 3 -1 3 0 0 Z " fill="#E7ECE8" transform="translate(113,188)"/>
<path d="M0 0 C2.375 -0.1875 2.375 -0.1875 5 0 C5.66 0.99 6.32 1.98 7 3 C6.34 3 5.68 3 5 3 C5 3.66 5 4.32 5 5 C-0.75 6.125 -0.75 6.125 -3 5 C-3 4.34 -3 3.68 -3 3 C-2.01 3 -1.02 3 0 3 C0 2.01 0 1.02 0 0 Z " fill="#B72877" transform="translate(37,144)"/>
<path d="M0 0 C1.65 0.33 3.3 0.66 5 1 C4.67 2.32 4.34 3.64 4 5 C1.36 5 -1.28 5 -4 5 C-4 4.34 -4 3.68 -4 3 C-3.01 2.67 -2.02 2.34 -1 2 C-0.67 1.34 -0.34 0.68 0 0 Z " fill="#EAE8DB" transform="translate(183,69)"/>
<path d="M0 0 C1.4370809 -0.05422947 2.87475462 -0.09289723 4.3125 -0.125 C5.11300781 -0.14820313 5.91351563 -0.17140625 6.73828125 -0.1953125 C9 0 9 0 12 2 C9.36 2 6.72 2 4 2 C4.33 3.98 4.66 5.96 5 8 C2.74754119 5.31158141 1.11786042 3.35358125 0 0 Z " fill="#F4E986" transform="translate(151,40)"/>
<path d="M0 0 C1.423125 0.2784375 1.423125 0.2784375 2.875 0.5625 C5.89868793 1.28686632 5.89868793 1.28686632 8 0 C7.67 1.65 7.34 3.3 7 5 C3 5 3 5 1.25 3.625 C0 2 0 2 0 0 Z " fill="#526E8B" transform="translate(72,96)"/>
<path d="M0 0 C0.99 0.33 1.98 0.66 3 1 C2.34 1 1.68 1 1 1 C1.02320313 1.62648438 1.04640625 2.25296875 1.0703125 2.8984375 C1.08835937 3.71570313 1.10640625 4.53296875 1.125 5.375 C1.14820313 6.18710938 1.17140625 6.99921875 1.1953125 7.8359375 C1 10 1 10 -1 12 C-1 11.34 -1 10.68 -1 10 C-1.66 10 -2.32 10 -3 10 C-2.69201674 8.51988629 -2.378482 7.04092675 -2.0625 5.5625 C-1.88847656 4.73878906 -1.71445312 3.91507812 -1.53515625 3.06640625 C-1 1 -1 1 0 0 Z " fill="#706F8B" transform="translate(29,70)"/>
<path d="M0 0 C0.99 0 1.98 0 3 0 C2.67 1.65 2.34 3.3 2 5 C2.66 5.33 3.32 5.66 4 6 C4 6.66 4 7.32 4 8 C2.35 7.67 0.7 7.34 -1 7 C-1.04254356 5.00045254 -1.04080783 2.99958364 -1 1 C-0.67 0.67 -0.34 0.34 0 0 Z " fill="#8A8A8A" transform="translate(159,25)"/>
<path d="M0 0 C0.66 0 1.32 0 2 0 C2 1.98 2 3.96 2 6 C-3.625 8 -3.625 8 -7 8 C-7 7.34 -7 6.68 -7 6 C-6.21625 5.7525 -5.4325 5.505 -4.625 5.25 C-1.67682892 3.84610901 -1.0975223 2.99324263 0 0 Z " fill="#FBDB5C" transform="translate(149,103)"/>
<path d="M0 0 C2.97 0.33 5.94 0.66 9 1 C9 1.33 9 1.66 9 2 C7.88625 2.12375 6.7725 2.2475 5.625 2.375 C1.96896323 2.6465813 1.96896323 2.6465813 0 5 C0.32041397 7.60280568 0.32041397 7.60280568 1 10 C0.67 9.34 0.34 8.68 0 8 C-0.66 8 -1.32 8 -2 8 C-2.33 6.02 -2.66 4.04 -3 2 C-2.01 2 -1.02 2 0 2 C0 1.34 0 0.68 0 0 Z " fill="#526D8B" transform="translate(71,86)"/>
<path d="M0 0 C1.670625 0.8971875 1.670625 0.8971875 3.375 1.8125 C4.00148438 2.14894531 4.62796875 2.48539062 5.2734375 2.83203125 C7 4 7 4 9 7 C7.56068883 6.54738642 6.12361001 6.08767021 4.6875 5.625 C3.88699219 5.36976562 3.08648437 5.11453125 2.26171875 4.8515625 C0 4 0 4 -3 2 C-2.01 1.34 -1.02 0.68 0 0 Z " fill="#D6D6E3" transform="translate(49,73)"/>
<path d="M0 0 C-0.33 0.99 -0.66 1.98 -1 3 C-4.5625 4.6875 -4.5625 4.6875 -8 6 C-7.625 3.0625 -7.625 3.0625 -7 0 C-4.3333581 -1.33332095 -2.83319697 -0.67102033 0 0 Z " fill="#949494" transform="translate(68,25)"/>
<path d="M0 0 C2.64 0 5.28 0 8 0 C8.33 1.32 8.66 2.64 9 4 C6.03 3.67 3.06 3.34 0 3 C0 2.01 0 1.02 0 0 Z " fill="#E7EBEC" transform="translate(187,155)"/>
<path d="M0 0 C0.66 0.66 1.32 1.32 2 2 C-0.1234016 2.83739781 -2.2487728 3.66980283 -4.375 4.5 C-5.55835938 4.9640625 -6.74171875 5.428125 -7.9609375 5.90625 C-11 7 -11 7 -13 7 C-12.67 6.01 -12.34 5.02 -12 4 C-10.35 4 -8.7 4 -7 4 C-7 3.34 -7 2.68 -7 2 C-4.69 1.34 -2.38 0.68 0 0 Z " fill="#AD3A7A" transform="translate(49,145)"/>
<path d="M0 0 C0.50789063 0.39832031 1.01578125 0.79664062 1.5390625 1.20703125 C5.53903498 4.28566175 9.36879143 6.91595614 14 9 C10.4695938 10.17680207 9.02516388 9.54745352 5.71875 8.02734375 C3.1232231 6.47592653 1.61519371 4.51970219 0 2 C0 1.34 0 0.68 0 0 Z " fill="#EE653B" transform="translate(120,123)"/>
<path d="M0 0 C0.99 0 1.98 0 3 0 C1.8141763 3.37503669 0.72426311 5.64722731 -2 8 C-4 5 -4 5 -3.625 2.8125 C-3.41875 2.214375 -3.2125 1.61625 -3 1 C-2.34 1.33 -1.68 1.66 -1 2 C-0.67 1.34 -0.34 0.68 0 0 Z " fill="#FBEA7E" transform="translate(197,104)"/>
<path d="M0 0 C3.3 0.33 6.6 0.66 10 1 C6 4 6 4 2.25 3.6875 C1.1775 3.460625 0.105 3.23375 -1 3 C-0.67 2.01 -0.34 1.02 0 0 Z " fill="#71A97F" transform="translate(124,112)"/>
<path d="M0 0 C0.33 0.66 0.66 1.32 1 2 C1.99 1.67 2.98 1.34 4 1 C4 1.99 4 2.98 4 4 C3.01 4.66 2.02 5.32 1 6 C0.42006301 8.19454681 0.42006301 8.19454681 0.3125 10.625 C0.24675781 11.44226563 0.18101563 12.25953125 0.11328125 13.1015625 C0.07589844 13.72804687 0.03851562 14.35453125 0 15 C-0.33 15 -0.66 15 -1 15 C-1.02715383 13.25008666 -1.04646551 11.50005055 -1.0625 9.75 C-1.07410156 8.77546875 -1.08570312 7.8009375 -1.09765625 6.796875 C-1.01195577 4.34241322 -0.70706066 2.33831086 0 0 Z " fill="#A82C6F" transform="translate(27,126)"/>
<path d="M0 0 C0.66 0.33 1.32 0.66 2 1 C1.24266726 2.3410477 0.46867264 3.67269781 -0.3125 5 C-0.74175781 5.7425 -1.17101562 6.485 -1.61328125 7.25 C-2.07089844 7.8275 -2.52851562 8.405 -3 9 C-3.99 9 -4.98 9 -6 9 C-6 6 -6 6 -4.625 4.3125 C-3 3 -3 3 -1 3 C-0.67 2.01 -0.34 1.02 0 0 Z " fill="#E21050" transform="translate(78,125)"/>
<path d="M0 0 C2.46278801 2.46278801 2.99771255 4.70676982 4 8 C1.03 7.505 1.03 7.505 -2 7 C-1.34 4.69 -0.68 2.38 0 0 Z " fill="#638782" transform="translate(111,110)"/>
<path d="M0 0 C0.66 0.33 1.32 0.66 2 1 C2.33 1.99 2.66 2.98 3 4 C3.66 4 4.32 4 5 4 C5.33 4.66 5.66 5.32 6 6 C4.0085944 6.38133299 2.00720923 6.71325582 0 7 C-1 6 -1 6 -1.125 3.5 C-1 1 -1 1 0 0 Z " fill="#888888" transform="translate(206,109)"/>
<path d="M0 0 C0.66 0.99 1.32 1.98 2 3 C-0.97 5.475 -0.97 5.475 -4 8 C-4.33 7.34 -4.66 6.68 -5 6 C-5.99 5.67 -6.98 5.34 -8 5 C-7.67 4.34 -7.34 3.68 -7 3 C-5.02 3 -3.04 3 -1 3 C-0.67 2.01 -0.34 1.02 0 0 Z " fill="#6CAB7E" transform="translate(144,102)"/>
<path d="M0 0 C-5.00932754 3.00559652 -8.32723489 3.29341888 -14 3 C-11.20387283 1.13591522 -9.62830652 0.51163882 -6.4375 -0.1875 C-5.65246094 -0.36667969 -4.86742187 -0.54585937 -4.05859375 -0.73046875 C-2 -1 -2 -1 0 0 Z " fill="#69B5A7" transform="translate(150,40)"/>
<path d="M0 0 C0.66 0.33 1.32 0.66 2 1 C1 4 1 4 -1 5 C-3.3329866 5.04022391 -5.66706666 5.04320247 -8 5 C-7.34 4.34 -6.68 3.68 -6 3 C-4.68 3 -3.36 3 -2 3 C-2 2.34 -2 1.68 -2 1 C-1.34 0.67 -0.68 0.34 0 0 Z " fill="#F7E6D9" transform="translate(178,176)"/>
<path d="M0 0 C1.98 1.65 3.96 3.3 6 5 C4.02 5.99 4.02 5.99 2 7 C0.4375 5.1875 0.4375 5.1875 -1 3 C-0.67 2.01 -0.34 1.02 0 0 Z " fill="#EFE2EC" transform="translate(34,164)"/>
<path d="M0 0 C2.475 0.495 2.475 0.495 5 1 C4.625 3.4375 4.625 3.4375 4 6 C3.01 6.495 3.01 6.495 2 7 C1.34 4.69 0.68 2.38 0 0 Z " fill="#6E6E8B" transform="translate(28,105)"/>
<path d="M0 0 C1.65 0 3.3 0 5 0 C6.0625 1.875 6.0625 1.875 7 4 C6.67 4.66 6.34 5.32 6 6 C3.97945196 4.35830472 1.97956942 2.69088222 0 1 C0 0.67 0 0.34 0 0 Z " fill="#EC3562" transform="translate(81,194)"/>
<path d="M0 0 C1.39195915 4.17587745 -0.17676781 6.13474776 -2 10 C-4 6.25 -4 6.25 -4 4 C-3.34 4 -2.68 4 -2 4 C-2 3.34 -2 2.68 -2 2 C-1.34 2 -0.68 2 0 2 C0 1.34 0 0.68 0 0 Z " fill="#B7337A" transform="translate(31,142)"/>
<path d="M0 0 C0.99 0.99 1.98 1.98 3 3 C2.25 4.9375 2.25 4.9375 1 7 C-1.125 7.75 -1.125 7.75 -3 8 C-2.690625 7.236875 -2.38125 6.47375 -2.0625 5.6875 C-1.32106407 3.81210323 -0.63771783 1.91315348 0 0 Z " fill="#F79669" transform="translate(195,112)"/>
<path d="M0 0 C0.33 0.66 0.66 1.32 1 2 C-3.75 6 -3.75 6 -6 6 C-6.33 6.66 -6.66 7.32 -7 8 C-7 7.34 -7 6.68 -7 6 C-7.66 5.67 -8.32 5.34 -9 5 C-6.03 3.35 -3.06 1.7 0 0 Z " fill="#FAD6E2" transform="translate(142,197)"/>
<path d="M0 0 C0.66 0 1.32 0 2 0 C1.21681311 3.91593446 -0.39179858 7.36406635 -2 11 C-2.33 11 -2.66 11 -3 11 C-2.53199289 6.94393835 -2.12046792 3.53411321 0 0 Z " fill="#C41A61" transform="translate(70,133)"/>
<path d="M0 0 C-4.10457614 2.98514628 -6.97745369 3.2954439 -12 3 C-7.97869817 0.31913211 -4.73968522 -1.57989507 0 0 Z " fill="#E4E5E1" transform="translate(42,154)"/>
<path d="M0 0 C0.33 0.99 0.66 1.98 1 3 C-0.32 4.32 -1.64 5.64 -3 7 C-3.99 6.67 -4.98 6.34 -6 6 C-4.71034824 4.62437146 -3.37310707 3.29233607 -2 2 C-1.34 2 -0.68 2 0 2 C0 1.34 0 0.68 0 0 Z " fill="#E2DB73" transform="translate(148,102)"/>
<path d="M0 0 C1.32 0.66 2.64 1.32 4 2 C2.7191375 5.64553172 1.83328987 7.16671013 -1 10 C-0.67 6.7 -0.34 3.4 0 0 Z " fill="#7B547F" transform="translate(32,104)"/>
<path d="M0 0 C2.64 0 5.28 0 8 0 C8 0.99 8 1.98 8 3 C7.05125 2.979375 6.1025 2.95875 5.125 2.9375 C2.09333717 2.77448174 2.09333717 2.77448174 0 4 C0 2.68 0 1.36 0 0 Z " fill="#60B5B6" transform="translate(128,28)"/>
<path d="M0 0 C-0.66 1.32 -1.32 2.64 -2 4 C-4.31 4 -6.62 4 -9 4 C-3 0 -3 0 0 0 Z " fill="#F8ED7D" transform="translate(180,76)"/>
<path d="M0 0 C1.65 0.99 3.3 1.98 5 3 C4.67 3.99 4.34 4.98 4 6 C2.35 5.01 0.7 4.02 -1 3 C-0.67 2.01 -0.34 1.02 0 0 Z " fill="#767590" transform="translate(35,59)"/>
<path d="M0 0 C0.66 0 1.32 0 2 0 C1.67 3.63 1.34 7.26 1 11 C0.67 11 0.34 11 0 11 C-0.19406478 9.35492782 -0.38007935 7.70890406 -0.5625 6.0625 C-0.66691406 5.14597656 -0.77132812 4.22945312 -0.87890625 3.28515625 C-0.91886719 2.53105469 -0.95882812 1.77695313 -1 1 C-0.67 0.67 -0.34 0.34 0 0 Z " fill="#EA3964" transform="translate(110,184)"/>
<path d="M0 0 C0.66 0.33 1.32 0.66 2 1 C0.68 2.65 -0.64 4.3 -2 6 C-3.32 5.67 -4.64 5.34 -6 5 C-4.02 3.35 -2.04 1.7 0 0 Z " fill="#E30E4B" transform="translate(86,118)"/>
<path d="M0 0 C2.97 0.99 5.94 1.98 9 3 C9 3.33 9 3.66 9 4 C6.69 4 4.38 4 2 4 C1.34 2.68 0.68 1.36 0 0 Z " fill="#71A684" transform="translate(113,114)"/>
<path d="M0 0 C0.66 0.99 1.32 1.98 2 3 C-2.625 5.125 -2.625 5.125 -6 4 C-5.34 4 -4.68 4 -4 4 C-4 3.34 -4 2.68 -4 2 C-2.68 1.34 -1.36 0.68 0 0 Z " fill="#F4E7B7" transform="translate(174,75)"/>
</svg>
